<svg width="16" height="16" viewBox="0 0 16 16" stroke-width="0" fill="none" xmlns="http://www.w3.org/2000/svg">
<path d="M6.83301 2.3335C4.89967 2.3335 3.33301 3.90016 3.33301 5.8335C3.33301 7.76683 4.89967 9.3335 6.83301 9.3335C8.76634 9.3335 10.333 7.76683 10.333 5.8335C10.333 3.90016 8.76634 2.3335 6.83301 2.3335ZM6.83301 8.3335C5.46634 8.3335 4.33301 7.20016 4.33301 5.8335C4.33301 4.46683 5.46634 3.3335 6.83301 3.3335C8.19967 3.3335 9.33301 4.46683 9.33301 5.8335C9.33301 7.20016 8.23301 8.3335 6.83301 8.3335Z" />
<path d="M6.83312 8.33309C3.99979 8.33309 1.63312 10.4998 1.36646 13.2664C1.33312 13.5664 1.56646 13.8331 1.86646 13.8331C2.13312 13.8331 2.33312 13.6331 2.36646 13.3664C2.59979 11.0998 4.49979 9.36642 6.79979 9.36642C9.09979 9.36642 10.9998 11.1331 11.2331 13.3664C11.2665 13.6331 11.4665 13.8331 11.7331 13.8331C12.0331 13.8331 12.2665 13.5664 12.2331 13.2664C12.0331 10.4998 9.69979 8.33309 6.83312 8.33309ZM11.7998 8.33309C12.6998 7.69976 13.2998 6.63309 13.2998 5.46642C13.2998 3.96642 12.3331 2.66642 10.9998 2.16642C10.6665 2.06642 10.3331 2.29976 10.3331 2.63309C10.3331 2.83309 10.4665 3.03309 10.6665 3.09976C11.6331 3.46642 12.2998 4.36642 12.2998 5.43309C12.2998 6.46642 11.6665 7.36642 10.7665 7.73309C10.4998 7.83309 10.3331 8.09976 10.3331 8.39976C10.3331 8.73309 10.5665 9.03309 10.8998 9.09976C12.6998 9.53309 13.5998 11.0664 13.7998 12.9331C13.8331 13.1998 13.9998 13.3998 14.2665 13.4331C14.5998 13.4664 14.8665 13.1998 14.8331 12.8664C14.6331 10.7998 13.6998 9.06642 11.7998 8.33309Z" />
</svg>
