<svg width="16" height="16" stroke-width="0" fill="none" xmlns="http://www.w3.org/2000/svg">
<path d="M3.5 7.36401V13.8658C3.5 14.142 3.72386 14.3658 4 14.3658H6.58972V15.3658H4C3.17157 15.3658 2.5 14.6943 2.5 13.8658V7.36401H3.5ZM12.5 13.8658V7.36401H13.5V13.8658C13.5 14.6943 12.8284 15.3658 12 15.3658H9.66665V14.3658H12C12.2761 14.3658 12.5 14.142 12.5 13.8658Z" />
<path d="M3.5 7.36401V13.8658C3.5 14.142 3.72386 14.3658 4 14.3658H6.58972V15.3658H4C3.17157 15.3658 2.5 14.6943 2.5 13.8658V7.36401H3.5ZM12.5 13.8658V7.36401H13.5V13.8658C13.5 14.6943 12.8284 15.3658 12 15.3658H9.66665V14.3658H12C12.2761 14.3658 12.5 14.142 12.5 13.8658Z" />
<path fill-rule="evenodd" clip-rule="evenodd" d="M6 10.864H10V15.364H9V11.864H7V15.364H6V10.864Z" />
<path fill-rule="evenodd" clip-rule="evenodd" d="M8.00437 1.26699L14.3589 8.17414C14.546 8.37745 14.5368 8.69784 14.3384 8.88977C14.14 9.08169 13.8276 9.07246 13.6405 8.86916L7.9952 2.73293L2.35462 8.71566C2.16504 8.91674 1.8525 8.92225 1.65653 8.72799C1.46056 8.53373 1.45538 8.21325 1.64495 8.01217L8.00437 1.26699Z" />
</svg>
