<svg width="100" height="100" viewBox="0 0 100 100" fill="none" xmlns="http://www.w3.org/2000/svg">
<rect width="100" height="100" rx="20" fill="url(#paint0_linear_4791_122575)"/>
<g filter="url(#filter0_d_4791_122575)">
<path d="M72.8136 40.3378L70.6451 41.5721L68.4798 42.8064L66.3114 44.0408L64.1461 45.2751L61.9776 46.5094L59.8091 47.7437L57.6438 48.978L55.4785 50.2123L53.326 51.4467L51.1575 52.6998L49.7129 53.5206C49.4936 53.6459 49.3116 53.8259 49.1851 54.0425C49.0586 54.2592 48.992 54.5048 48.9922 54.7549V76.1581C48.9923 76.4077 49.059 76.6529 49.1855 76.869C49.3121 77.0852 49.494 77.2646 49.7131 77.3894C49.9322 77.5142 50.1808 77.5798 50.4337 77.5798C50.6867 77.5798 50.9352 77.5141 51.1543 77.3892L53.326 76.1393L55.4913 74.9049L57.6597 73.6706L59.8282 72.4363L61.9935 71.202L64.162 69.9677L66.3273 68.7334L68.4957 67.499L70.661 66.2647L72.8295 65.0116L74.2741 64.1908C74.4929 64.0658 74.6746 63.8863 74.8011 63.6702C74.9276 63.4542 74.9944 63.2092 74.9948 62.9596V51.431C74.9947 51.1814 74.928 50.9362 74.8015 50.72C74.6749 50.5039 74.4929 50.3244 74.2738 50.1997C74.0547 50.0749 73.8062 50.0092 73.5532 50.0093C73.3003 50.0093 73.0517 50.075 72.8327 50.1998L70.6642 51.4341L68.4989 52.6684L66.3304 53.9028L64.1651 55.1371L62.7174 55.961C62.4985 56.086 62.3168 56.2655 62.1903 56.4816C62.0639 56.6977 61.9971 56.9427 61.9967 57.1922V58.84C61.9968 59.0896 62.0634 59.3348 62.19 59.551C62.3165 59.7671 62.4985 59.9466 62.7176 60.0714C62.9367 60.1961 63.1852 60.2618 63.4382 60.2618C63.6912 60.2617 63.9397 60.196 64.1588 60.0712L66.3273 58.8369L68.4957 57.6026C68.7148 57.4778 68.9633 57.4121 69.2163 57.412C69.4693 57.412 69.7178 57.4777 69.9369 57.6024C70.156 57.7272 70.338 57.9067 70.4645 58.1228C70.5911 58.339 70.6577 58.5842 70.6578 58.8338V60.4847C70.6581 60.7344 70.5916 60.9797 70.465 61.1958C70.3385 61.412 70.1564 61.5914 69.9371 61.7159L68.4925 62.5398L66.3241 63.793L64.1556 65.0273L61.9903 66.2616L59.825 67.4959L57.6565 68.7302L55.4785 69.9677C55.2595 70.0925 55.011 70.1582 54.758 70.1582C54.505 70.1583 54.2565 70.0926 54.0374 69.9678C53.8183 69.8431 53.6363 69.6636 53.5098 69.4474C53.3832 69.2313 53.3165 68.9861 53.3164 68.7365V57.2079C53.3168 56.9583 53.3836 56.7133 53.5101 56.4973C53.6366 56.2812 53.8183 56.1017 54.0371 55.9767L55.4849 55.1527L57.6502 53.9184L59.8187 52.6653L61.984 51.4341L64.1524 50.1998L66.3114 48.978L68.4798 47.7249L70.6451 46.4937L72.8136 45.2563L74.2582 44.4355C74.477 44.3105 74.6588 44.1309 74.7852 43.9149C74.9117 43.6988 74.9785 43.4538 74.9789 43.2043V41.5721C74.9788 41.3225 74.9121 41.0773 74.7856 40.8612C74.659 40.645 74.4771 40.4656 74.258 40.3408C74.0389 40.216 73.7903 40.1504 73.5374 40.1504C73.2844 40.1504 73.0359 40.2161 72.8168 40.3409L72.8136 40.3378Z" fill="white"/>
<path d="M54.2778 39.6541L57.6464 41.5745C58.3057 41.9501 59.0536 42.1479 59.8149 42.1479C60.5762 42.1479 61.324 41.9501 61.9833 41.5745L64.1486 40.3402L66.3171 39.1059L68.4856 37.8716L70.6509 36.6373C70.8712 36.5123 71.0542 36.3323 71.1814 36.1153C71.3087 35.8983 71.3757 35.6521 71.3757 35.4014C71.3757 35.1507 71.3087 34.9044 71.1814 34.6874C71.0542 34.4704 70.8712 34.2904 70.6509 34.1655L68.4856 32.9312L66.3171 31.6969L64.1518 30.4625L61.977 29.2439L59.8085 27.9908L57.6432 26.7565L55.4748 25.5221L53.3253 24.291L51.1569 23.0566L48.9757 24.2878L46.8072 25.5409L44.6419 26.7721L42.4735 27.9908L40.3082 29.2439L38.1429 30.4782L35.9744 31.7125L33.8059 32.9468L31.6406 34.1812V39.1059L33.8091 37.8716L35.9744 36.6373L38.1429 35.4029L40.3082 34.1686L42.4766 32.9312L44.6451 34.1686L46.8104 35.3998L48.9757 36.6373L51.1442 37.8716L53.3253 39.1059M48.9757 29.2439L51.1442 27.9908L53.3253 29.2439L55.4906 30.4782L57.6591 31.7125L59.8276 32.9468L61.9929 34.1812C62.2124 34.3063 62.3947 34.4862 62.5215 34.7029C62.6482 34.9195 62.7149 35.1653 62.7149 35.4155C62.7149 35.6656 62.6482 35.9114 62.5215 36.1281C62.3947 36.3447 62.2124 36.5247 61.9929 36.6498C61.3347 37.0254 60.5879 37.2233 59.8276 37.2233C59.0673 37.2233 58.3204 37.0254 57.6623 36.6498L55.497 35.4155L53.3253 34.1686L51.1569 32.9312L48.9757 31.6969L46.8072 30.4625L48.9757 29.2439Z" fill="white"/>
<path d="M48.9756 48.5241V45.3913L53.103 42.4245C53.103 42.4245 56.2462 40.5574 51.7378 38.1984C53.0808 37.2085 52.1537 36.4785 52.1537 36.4785L58.2876 40.1439C58.2876 40.1439 59.5576 43.3518 54.7698 46.4094C49.982 49.467 48.9915 50.1343 48.9915 50.1343L48.9756 48.5241Z" fill="white"/>
<path fill-rule="evenodd" clip-rule="evenodd" d="M74.4384 31.1972L53.0488 19.0118C50.5699 17.5996 47.5159 17.5996 45.0371 19.0118L23.6474 31.1972C21.1686 32.6094 19.6416 35.2191 19.6416 38.0435V62.4143C19.6416 65.2386 21.1686 67.8484 23.6474 69.2606L45.0371 81.446C47.5159 82.8581 50.5699 82.8581 53.0488 81.446L74.4384 69.2606C76.9172 67.8484 78.4443 65.2386 78.4443 62.4143V38.0435C78.4443 35.2191 76.9172 32.6094 74.4384 31.1972ZM55.0517 15.5887C51.3335 13.4704 46.7524 13.4704 43.0342 15.5887L21.6445 27.7741C17.9263 29.8923 15.6357 33.807 15.6357 38.0435V62.4143C15.6357 66.6508 17.9263 70.5654 21.6445 72.6837L43.0342 84.8691C46.7524 86.9873 51.3334 86.9873 55.0517 84.8691L76.4413 72.6837C80.1596 70.5654 82.4501 66.6508 82.4501 62.4143V38.0435C82.4501 33.807 80.1596 29.8923 76.4413 27.7741L55.0517 15.5887Z" fill="url(#paint1_linear_4791_122575)"/>
<path d="M30.0467 61.5881C29.8182 53.9259 27.6874 51.358 25.8436 49.6277C30.3253 50.9178 38.7371 52.1432 37.9624 58.966C36.9777 67.6381 40.5203 71.9109 43.154 74.5067C36.6942 73.3517 30.2424 68.1515 30.0467 61.5881Z" fill="white"/>
</g>
<defs>
<filter id="filter0_d_4791_122575" x="8.63574" y="11" width="80.8145" height="86.457" filterUnits="userSpaceOnUse" color-interpolation-filters="sRGB">
<feFlood flood-opacity="0" result="BackgroundImageFix"/>
<feColorMatrix in="SourceAlpha" type="matrix" values="0 0 0 0 0 0 0 0 0 0 0 0 0 0 0 0 0 0 127 0" result="hardAlpha"/>
<feOffset dy="4"/>
<feGaussianBlur stdDeviation="3.5"/>
<feComposite in2="hardAlpha" operator="out"/>
<feColorMatrix type="matrix" values="0 0 0 0 0 0 0 0 0 0.084593 0 0 0 0 0.808333 0 0 0 1 0"/>
<feBlend mode="normal" in2="BackgroundImageFix" result="effect1_dropShadow_4791_122575"/>
<feBlend mode="normal" in="SourceGraphic" in2="effect1_dropShadow_4791_122575" result="shape"/>
</filter>
<linearGradient id="paint0_linear_4791_122575" x1="50" y1="0" x2="50" y2="100" gradientUnits="userSpaceOnUse">
<stop stop-color="#7987FF"/>
<stop offset="1" stop-color="#4052EC"/>
</linearGradient>
<linearGradient id="paint1_linear_4791_122575" x1="81.6973" y1="50.0518" x2="44.598" y2="50.0518" gradientUnits="userSpaceOnUse">
<stop stop-color="white"/>
<stop offset="1" stop-color="white" stop-opacity="0"/>
</linearGradient>
</defs>
</svg>
