<svg width="92" height="36" viewBox="0 0 92 36" fill="none" xmlns="http://www.w3.org/2000/svg">
<rect width="92" height="36" rx="2" fill="url(#paint0_linear_5245_142892)"/>
<path d="M25.24 8.58H26.76C29.26 11.3 32.14 13.42 35.42 14.98L34.28 17.02C31.04 15.34 28.28 13.16 26 10.46C23.9 12.98 21.12 15.18 17.64 17.04L16.52 15C20.02 13.28 22.92 11.14 25.24 8.58ZM25.52 14H27.62V18.18H32.84V20.2H27.62V24.36H34.3V26.4H17.46V24.36H20.3V16.88H22.36V24.36H25.52V14ZM42.78 8.7H44.88V24.36H47.08V8.7H49.18V24.36H54.94V26.4H37.06V24.36H42.78V8.7ZM52.72 12.48L54.56 13C53.8 16.42 52.84 19.42 51.68 21.98L49.8 21.32C50.92 19 51.88 16.04 52.72 12.48ZM39.2 12.42C40.2 15.08 41.1 18.14 41.88 21.58L39.98 22.04C39.3 18.92 38.46 15.92 37.42 13.02L39.2 12.42ZM61.46 8.8H63.5V13.86H64.38V15.92H59.98V16.56C59.98 17.1 59.96 17.62 59.94 18.12H63.76V25.42C64.74 23.54 65.26 20.94 65.34 17.66V9.96C68.52 9.9 71.36 9.48 73.88 8.68L74.88 10.54C72.6 11.22 70.04 11.62 67.24 11.74V14.22H74.5V16C74.06 18.6 73.28 20.82 72.12 22.64C73 23.8 74.08 24.68 75.34 25.3L74.3 27.16C72.94 26.44 71.78 25.5 70.84 24.32C69.8 25.48 68.6 26.42 67.2 27.18L66.22 25.3C67.56 24.56 68.7 23.64 69.62 22.56C68.64 20.8 67.96 18.68 67.6 16.18H67.24V17.66C67.16 21.56 66.46 24.68 65.16 27L63.76 25.48V27H61.72V20.1H59.84C59.6 22.98 59.06 25.22 58.26 26.78L56.68 25.4C57.48 23.56 57.9 20.6 57.92 16.56V9.18H59.98V13.86H61.46V8.8ZM69.48 16.18C69.8 17.9 70.28 19.4 70.92 20.7C71.68 19.34 72.2 17.84 72.5 16.18H69.48Z" fill="white"/>
<defs>
<linearGradient id="paint0_linear_5245_142892" x1="4.5" y1="4.5" x2="88.5" y2="31.5" gradientUnits="userSpaceOnUse">
<stop stop-color="#0718AF"/>
<stop offset="1" stop-color="#5364F4"/>
</linearGradient>
</defs>
</svg>
