<svg width="17" height="16" viewBox="0 0 17 16" fill="none" xmlns="http://www.w3.org/2000/svg">
<path d="M9 14C7.4087 14 5.88258 13.3679 4.75736 12.2426C3.63214 11.1174 3 9.5913 3 8C3 6.4087 3.63214 4.88258 4.75736 3.75736C5.88258 2.63214 7.4087 2 9 2C10.5913 2 12.1174 2.63214 13.2426 3.75736C14.3679 4.88258 15 6.4087 15 8C15 9.5913 14.3679 11.1174 13.2426 12.2426C12.1174 13.3679 10.5913 14 9 14ZM9 13.1304C10.3607 13.1304 11.6656 12.5899 12.6278 11.6278C13.5899 10.6656 14.1304 9.36068 14.1304 8C14.1304 6.63932 13.5899 5.33438 12.6278 4.37223C11.6656 3.41009 10.3607 2.86957 9 2.86957C7.63932 2.86957 6.33438 3.41009 5.37223 4.37223C4.41009 5.33438 3.86957 6.63932 3.86957 8C3.86957 9.36068 4.41009 10.6656 5.37223 11.6278C6.33438 12.5899 7.63932 13.1304 9 13.1304Z" />
<path d="M5 3.61751L5.5489 3L13 11.3825L12.4511 12L5 3.61751Z" />
</svg>
