<svg width="56" height="56" viewBox="0 0 56 56" fill="none" xmlns="http://www.w3.org/2000/svg">
<g clip-path="url(#clip0_1483_51292)">
<path d="M7.46434 0.500012V0.500014H7.46597H8.46597V1.42723e-05H10.466V0.500014H12.466V1.42723e-05H14.466V0.500014H16.466V1.42723e-05H18.466V0.500014H20.466V1.42723e-05H22.466V0.500014H24.466V1.42723e-05H26.466V0.500014H28.466V1.42723e-05H30.466V0.500014H32.466V1.42723e-05H34.466V0.500014H35.2589L35.7735 1.01468L36.1271 0.661126L37.4493 1.98335L37.0957 2.3369L38.418 3.65913L38.7715 3.30558L40.0937 4.6278L39.7402 4.98135L41.0624 6.30358L41.416 5.95003L42.7382 7.27225L42.3846 7.6258L43.7068 8.94803L44.0604 8.59448L45.3826 9.9167L45.0291 10.2703L46.3513 11.5925L46.7048 11.2389L48.0271 12.5611L47.6735 12.9147L48.9957 14.2369L49.3493 13.8834L50.6715 15.2056L50.3179 15.5591L50.8326 16.0738V16.9037H51.3326V18.9778H50.8326V21.0519H51.3326V23.126H50.8326V25.2H51.3326V27.2741H50.8326V29.3482H51.3326V31.4222H50.8326V33.4963H51.3326V35.5704H50.8326V37.6445H51.3326V39.7185H50.8326V41.7926H51.3326V43.8667H50.8326V45.9407H51.3326V48.0148H50.8326V50.0889H51.3326V52.1629H50.8326V53.1976C50.8319 53.2718 50.8275 53.3457 50.8195 53.4192L51.3166 53.4731C51.297 53.6546 51.2594 53.8337 51.2044 54.0078L50.7276 53.8572C50.7051 53.9284 50.6791 53.9985 50.6496 54.0673C50.6201 54.1361 50.5873 54.2033 50.5513 54.2686L50.9891 54.51C50.901 54.6699 50.7972 54.8207 50.6793 54.9601L50.2975 54.6373C50.2494 54.6942 50.1983 54.7489 50.1446 54.801L50.1368 54.8085L50.1294 54.8163C50.0782 54.8705 50.0243 54.9218 49.9681 54.9703L50.2944 55.3491C50.1558 55.4685 50.0054 55.5734 49.8455 55.6622L49.6028 55.2251C49.5379 55.2611 49.4711 55.2939 49.4026 55.3232C49.3341 55.3526 49.2643 55.3784 49.1934 55.4005L49.3425 55.8777C49.168 55.9323 48.9883 55.9689 48.8063 55.9869L48.757 55.4893C48.6831 55.4967 48.6088 55.5002 48.5342 55.5H48.5326H47.506V56H45.4526V55.5H43.3993V56H41.346V55.5H39.2926V56H37.2393V55.5H35.186V56H33.1326V55.5H31.0793V56H29.026V55.5H26.9727V56H24.9193V55.5H22.866V56H20.8127V55.5H18.7593V56H16.706V55.5H14.6527V56H12.5994V55.5H10.546V56H8.49269V55.5H7.46843C7.39425 55.4993 7.32029 55.4949 7.24681 55.4869L7.19296 55.984C7.01144 55.9644 6.83231 55.9268 6.65821 55.8718L6.80879 55.395C6.73765 55.3725 6.66755 55.3465 6.59873 55.317L6.40177 55.7766L6.59873 55.317C6.52991 55.2875 6.46273 55.2547 6.3974 55.2187L6.15599 55.6565C5.9961 55.5684 5.84534 55.4646 5.70592 55.3467L6.02874 54.9649C5.97178 54.9167 5.91713 54.8657 5.86501 54.8119L5.85751 54.8042L5.84967 54.7968C5.79554 54.7456 5.74417 54.6917 5.69573 54.6355L5.31688 54.9618C5.19752 54.8232 5.09263 54.6728 5.00384 54.5129L5.44096 54.2702C5.40492 54.2053 5.37214 54.1384 5.34278 54.07C5.31343 54.0015 5.28765 53.9316 5.26551 53.8608L4.78827 54.0099C4.73372 53.8353 4.69715 53.6557 4.67911 53.4737L5.17667 53.4243C5.16935 53.3505 5.16578 53.2761 5.16603 53.2016V53.2V52.2308H4.66603V50.2923H5.16603V48.3538H4.66603V46.4154H5.16603V44.4769H4.66603V42.5385H5.16603V40.6H4.66603V38.6615H5.16603V36.7231H4.66603V34.7846H5.16603V32.8462H4.66603V30.9077H5.16603V28.9692H4.66603V27.0308H5.16603V25.0923H4.66603V23.1538H5.16603V21.2154H4.66603V19.2769H5.16603V17.3385H4.66603V15.4H5.16603V13.4615H4.66603V11.5231H5.16603V9.58463H4.66603V7.64616H5.16603V5.7077H4.66603V3.76924H5.16603V2.80001C5.16603 2.65933 5.183 2.51614 5.21627 2.37208L4.7291 2.25955C4.80889 1.91415 4.96131 1.5778 5.16888 1.26802L5.58426 1.54634C5.66921 1.41954 5.76558 1.29706 5.87185 1.18083C5.92226 1.12774 5.97522 1.07731 6.03048 1.02971L5.70418 0.650861C5.84276 0.531508 5.99317 0.426616 6.15306 0.337824L6.3958 0.774944C6.4607 0.738905 6.52751 0.706125 6.59601 0.676769C6.66451 0.647413 6.73433 0.621637 6.80518 0.599498L6.65606 0.122253C6.83062 0.0677072 7.01031 0.0311304 7.19231 0.0130942L7.24161 0.510657C7.31548 0.503336 7.38982 0.499769 7.46434 0.500012Z" fill="#C5C5C5" stroke="#EAEAEA" stroke-dasharray="2 2"/>
<path d="M49.3501 13.8833L50.6723 15.2055L50.5112 15.3666H50.2446V15.8666H48.0668V15.3666H45.889V15.8666H43.7112V15.3666H41.5335V15.8666H39.3557V15.3666H38.2732C38.1237 15.3626 37.9759 15.3445 37.8318 15.3131L37.7253 15.8016C37.3685 15.7239 37.0297 15.5787 36.7273 15.3739L37.0076 14.9599C36.8838 14.8761 36.7675 14.7803 36.6603 14.6731C36.5532 14.566 36.4573 14.4496 36.3735 14.3259L35.9595 14.6062C35.7548 14.3038 35.6096 13.9649 35.5318 13.6081L36.0203 13.5016C35.9889 13.3575 35.9708 13.2098 35.9668 13.0603V11.9778H35.4668V9.79998H35.9668V7.62221H35.4668V5.44443H35.9668V3.26666H35.4668V1.08889H35.9668V0.822221L36.1279 0.66111L37.4501 1.98333L37.0966 2.33688L38.4188 3.6591L38.7723 3.30555L40.0946 4.62777L39.741 4.98132L41.0632 6.30354L41.4168 5.94999L42.739 7.27221L42.3855 7.62576L43.7077 8.94798L44.0612 8.59443L45.3834 9.91665L45.0299 10.2702L46.3521 11.5924L46.7057 11.2389L48.0279 12.5611L47.6743 12.9146L48.9966 14.2369L49.3501 13.8833Z" fill="#C5C5C5" stroke="#EAEAEA" stroke-dasharray="2 2"/>
</g>
<defs>
<clipPath id="clip0_1483_51292">
<rect width="56" height="56" fill="white"/>
</clipPath>
</defs>
</svg>
