<svg width="17" height="16" viewBox="0 0 17 16" fill="none" xmlns="http://www.w3.org/2000/svg">
<path d="M14.8016 7.39984L14.3096 6.90182C14.0396 6.63181 13.6016 6.62581 13.3256 6.89582L10.6555 9.53592C10.5955 9.59592 10.5595 9.66793 10.5535 9.74593L10.4395 10.844V10.874C10.4395 10.97 10.4815 11.06 10.5475 11.126C10.6135 11.186 10.6975 11.216 10.7815 11.216H10.8115L11.9095 11.114C11.9935 11.108 12.0655 11.072 12.1255 11.018L14.7956 8.37788C14.9276 8.24587 14.9996 8.07187 14.9996 7.88586C14.9996 7.70585 14.9276 7.53185 14.8016 7.39984ZM13.5236 8.66589L11.7235 10.442L11.1655 10.496L11.2255 9.93794L13.0256 8.16187L13.5236 8.66589ZM13.8056 7.38184H13.8116L14.3036 7.87986V7.88586L14.0096 8.17987L13.5056 7.66985L13.8056 7.38184Z" />
<path d="M13.4644 11.2764C13.2364 11.3244 13.0924 11.5524 13.1404 11.7804C13.1824 11.9724 13.2124 12.1704 13.2304 12.3684H3.86403C4.08004 9.9743 6.09612 8.09023 8.55021 8.09023C9.14423 8.09023 9.72625 8.19824 10.2783 8.42024C10.4943 8.50425 10.7403 8.40224 10.8303 8.18023C10.9143 7.96423 10.8123 7.71822 10.5903 7.62821C10.4703 7.58021 10.3443 7.53821 10.2183 7.49621C11.0223 6.95619 11.5563 6.03815 11.5563 5.00011C11.5563 3.34405 10.2123 2 8.55621 2C6.90015 2 5.5561 3.34405 5.5561 5.00011C5.5561 6.03815 6.09012 6.95619 6.89415 7.49621C4.63806 8.21024 3 10.3163 3 12.7944C3 13.0284 3.19201 13.2204 3.42602 13.2204H13.6804C13.9144 13.2204 14.1064 13.0284 14.1064 12.7944C14.1064 12.3924 14.0644 11.9904 13.9744 11.6004C13.9204 11.3724 13.6924 11.2283 13.4644 11.2764ZM6.39613 5.00611C6.39613 3.81807 7.36216 2.85203 8.55021 2.85203C9.73826 2.85203 10.7043 3.81807 10.7043 5.00611C10.7043 6.19416 9.73826 7.1602 8.55021 7.1602C7.36216 7.1602 6.39613 6.19416 6.39613 5.00611Z" />
</svg>
