<svg width="12" height="12" viewBox="0 0 12 12" fill="none" stroke-width="0" xmlns="http://www.w3.org/2000/svg">
<path d="M7.41533 0.611111V11.4444C7.41533 11.7778 7.7133 12 8.16024 12C8.60719 12 8.90516 11.7778 8.90516 11.4444V1.77778L10.7674 2.88889C11.0654 3.11111 11.5868 3.05556 11.8103 2.83333C12.1083 2.61111 12.0338 2.22222 11.7358 2.05556L8.68168 0.166667C8.16025 -0.166667 7.41533 0.111111 7.41533 0.611111ZM3.83975 0C3.39281 0 3.09484 0.222222 3.09484 0.555556V10.2222L1.23256 9.11111C0.934596 8.88889 0.413158 8.94444 0.189684 9.16667C-0.108281 9.38889 -0.0337893 9.77778 0.264176 9.94444L3.31832 11.8333C3.83975 12.1111 4.51018 11.8889 4.51018 11.3889V0.555556C4.58467 0.277778 4.21221 -1.19358e-08 3.83975 0Z" />
</svg>
