<svg width="17" height="16" viewBox="0 0 17 16" fill="none" xmlns="http://www.w3.org/2000/svg">
<path d="M13.3887 7C13.2561 7 13.1289 7.05268 13.0351 7.14645C12.9413 7.24021 12.8887 7.36739 12.8887 7.5C12.8887 7.63261 12.9413 7.75979 13.0351 7.85355C13.1289 7.94732 13.2561 8 13.3887 8C13.5212 8.00041 13.6481 8.05322 13.7418 8.1469C13.8354 8.24058 13.8883 8.36752 13.8887 8.5V12.5C13.8883 12.6325 13.8354 12.7594 13.7418 12.8531C13.6481 12.9468 13.5212 12.9996 13.3887 13H4.38867C4.25606 13 4.12889 12.9473 4.03512 12.8536C3.94135 12.7598 3.88867 12.6326 3.88867 12.5V8.5C3.88867 8.36739 3.94135 8.24021 4.03512 8.14645C4.12889 8.05268 4.25606 8 4.38867 8H8.88867C9.02128 8 9.14846 7.94732 9.24223 7.85355C9.33599 7.75979 9.38867 7.63261 9.38867 7.5C9.38867 7.36739 9.33599 7.24021 9.24223 7.14645C9.14846 7.05268 9.02128 7 8.88867 7H6.88867V5C6.88867 4.46957 7.09939 3.96086 7.47446 3.58579C7.84953 3.21071 8.35824 3 8.88867 3C9.41911 3 9.92781 3.21071 10.3029 3.58579C10.678 3.96086 10.8887 4.46957 10.8887 5C10.8887 5.13261 10.9413 5.25979 11.0351 5.35355C11.1289 5.44732 11.2561 5.5 11.3887 5.5C11.5213 5.5 11.6485 5.44732 11.7422 5.35355C11.836 5.25979 11.8887 5.13261 11.8887 5C11.8887 4.20435 11.5726 3.44129 11.01 2.87868C10.4474 2.31607 9.68432 2 8.88867 2C8.09302 2 7.32996 2.31607 6.76735 2.87868C6.20474 3.44129 5.88867 4.20435 5.88867 5V7H4.38867C3.9911 7.00083 3.61005 7.15913 3.32892 7.44025C3.0478 7.72138 2.8895 8.10243 2.88867 8.5V12.5C2.8895 12.8976 3.0478 13.2786 3.32892 13.5597C3.61005 13.8409 3.9911 13.9992 4.38867 14H13.3887C13.7862 13.9992 14.1673 13.8409 14.4484 13.5597C14.7295 13.2786 14.8878 12.8976 14.8887 12.5V8.5C14.8878 8.10243 14.7295 7.72138 14.4484 7.44025C14.1673 7.15913 13.7862 7.00083 13.3887 7Z" />
<path d="M8.03339 10.7159C8.07983 10.7625 8.135 10.7994 8.19573 10.8246C8.25645 10.8498 8.32155 10.8627 8.3873 10.8627C8.45304 10.8627 8.51814 10.8498 8.57887 10.8246C8.6396 10.7994 8.69476 10.7625 8.7412 10.7159L14.3662 5.09095C14.4578 4.99683 14.5087 4.87044 14.5079 4.7391C14.5071 4.60775 14.4546 4.482 14.3619 4.38903C14.2691 4.29605 14.1435 4.24331 14.0121 4.24221C13.8808 4.2411 13.7543 4.29173 13.66 4.38313L8.03495 10.0081C7.98813 10.0544 7.95092 10.1094 7.92548 10.1701C7.90004 10.2308 7.88687 10.2959 7.88672 10.3617C7.88657 10.4275 7.89946 10.4927 7.92463 10.5535C7.94981 10.6143 7.98677 10.6695 8.03339 10.7159Z" />
</svg>
