<svg width="56" height="56" viewBox="0 0 56 56" fill="none" xmlns="http://www.w3.org/2000/svg">
<g clip-path="url(#clip0_1483_51285)">
<path d="M7.46695 1.42723e-05C7.10021 -0.00118116 6.73712 0.072731 6.40003 0.217197C6.06294 0.361662 5.75901 0.573621 5.50695 0.840014C4.99365 1.40001 4.66701 2.10001 4.66701 2.80001V53.2C4.66581 53.5667 4.73972 53.9298 4.88419 54.2669C5.02865 54.604 5.24061 54.9079 5.50701 55.16C5.76181 55.4228 6.06628 55.6324 6.40275 55.7766C6.73921 55.9208 7.10096 55.9967 7.46701 56H48.5336C48.9003 56.0012 49.2634 55.9273 49.6005 55.7828C49.9376 55.6383 50.2415 55.4264 50.4936 55.16C50.7564 54.9052 50.966 54.6007 51.1102 54.2642C51.2544 53.9278 51.3303 53.566 51.3336 53.2V15.8667L35.4669 1.42723e-05H7.46695Z" fill="#00B632"/>
<path d="M51.3334 15.8666H38.2668C37.5298 15.8487 36.828 15.5479 36.3068 15.0267C35.7855 14.5054 35.4847 13.8036 35.4668 13.0666V0L51.3334 15.8666Z" fill="#7FDA98"/>
<path d="M24.5277 32.2738L14.2227 18.2109H21.3455L28.0876 28.2773L35.1389 18.2109H42.0345L31.4969 32.2738L42.5605 47.2359H35.3667L27.9341 36.5691L20.5205 47.3047H13.4668L24.5277 32.2738Z" fill="white"/>
</g>
<defs>
<clipPath id="clip0_1483_51285">
<rect width="56" height="56" fill="white"/>
</clipPath>
</defs>
</svg>
